# xmcd
#
# Track frame offsets:
#	150
#	20177
#	44476
#	59401
#	82951
#	84804
#	103958
#	124286
#	129536
#	142279
#	163675
#	184126
#	204099
#	216675
#	238225
#	256033
#	277289
#	281560
#	299861
#
# Disc length: 4072 seconds
#
# Revision: 0
# Processed by: cddbd v1.5.1PL0 Copyright (c) Steve Scherf et al.
# Submitted via: audiograbber 1.83.01
#
DISCID=3c0fe613
DTITLE=West Rocky - Shanda La Iera Candá
DYEAR=2000
DGENRE=Country
TTITLE0=He Thinks He'll Keep HerHe Thinks He'll Keep Her
TTITLE1=I Don't Wanna Miss A ThingI Don't Wanna Miss A Thing
TTITLE2=I'm AllrightI'm Allright
TTITLE3=Sem A Sombra Da DorSem A Sombra Da Dor
TTITLE4=Talk ShowTalk Show
TTITLE5=A MalvadaA Malvada
TTITLE6=I Ware Your LoveI Ware Your Love
TTITLE7=Talk ShowTalk Show
TTITLE8=It's A Little Too Late
TTITLE9=One Of Those Nights
TTITLE10=Loosing My Religion
TTITLE11=Ainda Importa Pra Mim
TTITLE12=Hole In My Heart
TTITLE13=Love Is On Our Side
TTITLE14=Gonna Get A Life
TTITLE15=Foot Loose
TTITLE16=Talk Show
TTITLE17=Benção Dos CowBoys
TTITLE18=Talk Show
EXTD=
EXTT0=
EXTT1=
EXTT2=
EXTT3=
EXTT4=
EXTT5=
EXTT6=
EXTT7=
EXTT8=
EXTT9=
EXTT10=
EXTT11=
EXTT12=
EXTT13=
EXTT14=
EXTT15=
EXTT16=
EXTT17=
EXTT18=
PLAYORDER=
